<svg width="24" height="24" viewBox="0 0 24 24" xmlns="http://www.w3.org/2000/svg"><path fill="none" d="M0 0h24v24H0z"/><path fill="#FFF" d="M19.43 12.975c.04-.32.07-.645.07-.975 0-.33-.03-.655-.07-.975l2.115-1.655a.5.5 0 0 0 .12-.64l-2-3.465c-.125-.215-.385-.305-.61-.215l-2.49 1.005a7.588 7.588 0 0 0-1.69-.985L14.5 2.42A.514.514 0 0 0 14 2h-4a.505.505 0 0 0-.495.42L9.13 5.07a7.4 7.4 0 0 0-1.69.985L4.95 5.05a.5.5 0 0 0-.61.215l-2 3.465a.5.5 0 0 0 .12.64l2.11 1.655c-.04.32-.07.645-.07.975 0 .33.03.655.07.975L2.46 14.63a.5.5 0 0 0-.12.64l2 3.465c.125.215.385.305.61.215l2.49-1.005c.515.395 1.08.73 1.69.985l.375 2.65c.04.235.245.42.495.42h4c.25 0 .455-.185.495-.42l.375-2.65a7.4 7.4 0 0 0 1.69-.985l2.49 1.005a.5.5 0 0 0 .61-.215l2-3.465a.5.5 0 0 0-.12-.64l-2.11-1.655zM12 15.5A3.497 3.497 0 0 1 8.5 12c0-1.935 1.565-3.5 3.5-3.5s3.5 1.565 3.5 3.5-1.565 3.5-3.5 3.5z"/></svg>